<?xml version="1.0" encoding="UTF-8"?>
<svg xmlns="http://www.w3.org/2000/svg" xmlns:xlink="http://www.w3.org/1999/xlink" width="px" height="0px" viewBox="0 0 270 171" version="1.1">
<g id="surface1">
<path style=" stroke:none;fill-rule:evenodd;fill:rgb(42.745098%,43.137255%,44.313725%);fill-opacity:1;" d="M 134.464844 25.886719 L 135.195312 25.683594 C 98.847656 36.996094 70.089844 56.375 69.5 70.609375 C 68.867188 85.847656 100.742188 89.421875 140.679688 78.597656 C 180.613281 67.777344 213.511719 46.640625 214.140625 31.40625 C 214.46875 23.511719 206.058594 18.75 192.328125 17.496094 C 209.109375 18.25 219.625 23.15625 219.625 31.914062 C 219.625 48.609375 181.488281 72.980469 134.464844 86.351562 C 87.441406 99.722656 49.308594 97.011719 49.308594 80.320312 C 49.308594 63.625 87.441406 39.25 134.464844 25.886719 "/>
<path style=" stroke:none;fill-rule:evenodd;fill:rgb(92.941176%,9.803922%,25.490196%);fill-opacity:1;" d="M 67.78125 113.664062 L 185.835938 0 L 175.136719 89.351562 L 155.617188 66.933594 Z M 67.78125 113.664062 "/>
<path style=" stroke:none;fill-rule:nonzero;fill:rgb(42.745098%,43.137255%,44.313725%);fill-opacity:1;" d="M 15.199219 170.320312 L 8.820312 160.828125 L 5.566406 160.828125 L 5.566406 170.320312 L 0.160156 170.320312 L 0.160156 141.839844 L 10.296875 141.839844 C 17.695312 141.839844 21.117188 145.824219 21.117188 151.332031 C 21.117188 155.316406 18.796875 159.132812 14.613281 160.40625 L 21.792969 170.320312 Z M 5.566406 155.402344 L 10.976562 155.402344 C 13.597656 155.402344 15.707031 153.707031 15.707031 151.332031 C 15.707031 148.664062 13.597656 147.265625 10.976562 147.265625 L 5.566406 147.265625 Z M 5.566406 155.402344 "/>
<path style=" stroke:none;fill-rule:nonzero;fill:rgb(42.745098%,43.137255%,44.313725%);fill-opacity:1;" d="M 55.398438 156.082031 C 55.402344 164.320312 48.742188 171 40.527344 171.003906 C 32.3125 171.003906 25.648438 164.328125 25.648438 156.085938 C 25.644531 147.847656 32.304688 141.167969 40.519531 141.164062 C 48.730469 141.179688 55.382812 147.847656 55.398438 156.082031 Z M 49.988281 156.082031 C 49.988281 150.839844 45.75 146.589844 40.523438 146.589844 C 35.292969 146.589844 31.058594 150.839844 31.058594 156.082031 C 31.058594 161.324219 35.292969 165.574219 40.519531 165.578125 C 43.035156 165.582031 45.445312 164.582031 47.222656 162.800781 C 49 161.019531 49.996094 158.601562 49.988281 156.082031 Z M 49.988281 156.082031 "/>
<path style=" stroke:none;fill-rule:nonzero;fill:rgb(42.745098%,43.137255%,44.313725%);fill-opacity:1;" d="M 82.351562 161.84375 C 82.351562 166.929688 78.464844 171 70.941406 171 C 63.671875 171 59.871094 166.761719 59.363281 166.25 L 62.070312 161.503906 C 64.375 164.03125 67.609375 165.5 71.023438 165.578125 C 74.789062 165.578125 76.941406 164.171875 76.941406 162.183594 C 76.941406 160.195312 74.914062 159.175781 71.195312 158.625 C 63.121094 157.398438 60.378906 154.386719 60.378906 150.066406 C 60.378906 145.316406 64.222656 141.167969 71.277344 141.167969 C 74.824219 141.152344 78.261719 142.382812 81 144.640625 L 78.71875 149.300781 C 76.597656 147.558594 73.941406 146.597656 71.195312 146.589844 C 68.320312 146.589844 65.785156 147.390625 65.785156 149.683594 C 65.785156 151.628906 67.4375 152.351562 71.535156 153.03125 C 77.746094 154.046875 82.351562 155.742188 82.351562 161.84375 Z M 82.351562 161.84375 "/>
<path style=" stroke:none;fill-rule:nonzero;fill:rgb(42.745098%,43.137255%,44.313725%);fill-opacity:1;" d="M 108.726562 162.652344 L 110.796875 167.566406 C 108.226562 169.769531 104.964844 170.984375 101.585938 171 C 93.261719 171 86.457031 164.300781 86.457031 156.078125 C 86.457031 147.855469 93.261719 141.164062 101.585938 141.164062 C 104.753906 141.164062 108.386719 142.347656 110.796875 144.550781 L 108.726562 149.46875 C 106.84375 147.617188 104.308594 146.585938 101.671875 146.589844 C 96.261719 146.589844 91.867188 150.824219 91.867188 156.078125 C 91.867188 161.332031 96.265625 165.578125 101.671875 165.578125 C 104.320312 165.597656 106.867188 164.542969 108.726562 162.652344 Z M 108.726562 162.652344 "/>
<path style=" stroke:none;fill-rule:nonzero;fill:rgb(42.745098%,43.137255%,44.313725%);fill-opacity:1;" d="M 144.066406 156.082031 C 144.070312 164.320312 137.410156 171 129.195312 171 C 120.980469 171 114.320312 164.320312 114.320312 156.082031 C 114.320312 147.84375 120.980469 141.164062 129.195312 141.164062 C 137.402344 141.175781 144.054688 147.847656 144.066406 156.082031 Z M 138.660156 156.082031 C 138.65625 150.839844 134.417969 146.589844 129.191406 146.59375 C 123.964844 146.59375 119.730469 150.84375 119.730469 156.085938 C 119.730469 161.328125 123.96875 165.578125 129.195312 165.578125 C 131.707031 165.582031 134.117188 164.582031 135.894531 162.800781 C 137.671875 161.019531 138.664062 158.601562 138.660156 156.082031 Z M 138.660156 156.082031 "/>
<path style=" stroke:none;fill-rule:nonzero;fill:rgb(42.745098%,43.137255%,44.313725%);fill-opacity:1;" d="M 171.023438 161.84375 C 171.023438 166.929688 167.136719 171 159.613281 171 C 152.347656 171 148.542969 166.761719 148.035156 166.25 L 150.742188 161.503906 C 153.046875 164.03125 156.285156 165.5 159.699219 165.578125 C 163.460938 165.578125 165.617188 164.171875 165.617188 162.183594 C 165.617188 160.195312 163.589844 159.175781 159.867188 158.625 C 151.800781 157.398438 149.050781 154.386719 149.050781 150.066406 C 149.050781 145.316406 152.898438 141.167969 159.953125 141.167969 C 163.5 141.152344 166.9375 142.382812 169.671875 144.640625 L 167.390625 149.300781 C 165.269531 147.554688 162.613281 146.597656 159.867188 146.589844 C 156.996094 146.589844 154.460938 147.390625 154.460938 149.683594 C 154.460938 151.628906 156.109375 152.351562 160.207031 153.03125 C 166.421875 154.046875 171.023438 155.742188 171.023438 161.84375 Z M 171.023438 161.84375 "/>
<path style=" stroke:none;fill-rule:nonzero;fill:rgb(42.745098%,43.137255%,44.313725%);fill-opacity:1;" d="M 209.042969 170.320312 L 203.296875 170.320312 L 200.929688 151.675781 L 193.492188 170.320312 L 190.789062 170.320312 L 183.351562 151.675781 L 180.984375 170.320312 L 175.238281 170.320312 L 179.292969 141.839844 L 184.703125 141.839844 L 192.140625 160.152344 L 199.578125 141.839844 L 204.988281 141.839844 Z M 209.042969 170.320312 "/>
<path style=" stroke:none;fill-rule:nonzero;fill:rgb(42.745098%,43.137255%,44.313725%);fill-opacity:1;" d="M 242.890625 156.082031 C 242.890625 164.320312 236.234375 171 228.015625 171.003906 C 219.800781 171.003906 213.140625 164.324219 213.140625 156.085938 C 213.136719 147.84375 219.796875 141.164062 228.015625 141.164062 C 236.222656 141.179688 242.875 147.847656 242.890625 156.082031 Z M 237.480469 156.082031 C 237.476562 150.835938 233.238281 146.589844 228.011719 146.589844 C 222.785156 146.589844 218.546875 150.84375 218.546875 156.085938 C 218.546875 161.328125 222.785156 165.578125 228.015625 165.578125 C 230.527344 165.582031 232.9375 164.582031 234.714844 162.800781 C 236.488281 161.019531 237.484375 158.601562 237.480469 156.082031 Z M 237.480469 156.082031 "/>
<path style=" stroke:none;fill-rule:nonzero;fill:rgb(42.745098%,43.137255%,44.313725%);fill-opacity:1;" d="M 269.839844 161.84375 C 269.839844 166.929688 265.953125 171 258.429688 171 C 251.164062 171 247.359375 166.761719 246.855469 166.25 L 249.558594 161.503906 C 251.867188 164.03125 255.101562 165.5 258.515625 165.578125 C 262.277344 165.578125 264.433594 164.171875 264.433594 162.183594 C 264.433594 160.195312 262.402344 159.175781 258.683594 158.625 C 250.613281 157.398438 247.867188 154.386719 247.867188 150.066406 C 247.867188 145.316406 251.714844 141.167969 258.769531 141.167969 C 262.316406 141.152344 265.75 142.382812 268.488281 144.640625 L 266.207031 149.300781 C 264.085938 147.554688 261.429688 146.597656 258.683594 146.589844 C 255.8125 146.589844 253.273438 147.390625 253.273438 149.683594 C 253.273438 151.628906 254.925781 152.351562 259.023438 153.03125 C 265.238281 154.046875 269.839844 155.742188 269.839844 161.84375 Z M 269.839844 161.84375 "/>
</g>
</svg>
