<?xml version="1.0" encoding="UTF-8"?>
<svg xmlns="http://www.w3.org/2000/svg" xmlns:xlink="http://www.w3.org/1999/xlink" width="px" height="0px" viewBox="0 0 1250 1250" version="1.1">
<g id="surface1">
<rect x="0" y="0" width="1250" height="1250" style="fill:rgb(100%,100%,100%);fill-opacity:1;stroke:none;"/>
<path style=" stroke:none;fill-rule:evenodd;fill:rgb(14.509804%,32.54902%,59.607843%);fill-opacity:1;" d="M 531.035156 617.316406 C 483.550781 617.316406 445.0625 655.796875 445.0625 703.277344 L 445.097656 790.359375 L 340.824219 790.320312 C 310.046875 790.320312 285.09375 765.535156 285.09375 734.757812 L 285.09375 715.140625 C 285.09375 684.363281 309.964844 659.765625 340.742188 659.765625 L 427.152344 659.792969 L 427.152344 624.203125 L 340.617188 624.253906 C 290.359375 624.253906 249.699219 664.785156 249.699219 715.042969 L 249.699219 734.855469 C 249.699219 785.113281 290.4375 825.855469 340.695312 825.855469 L 480.71875 825.882812 L 480.59375 703.292969 C 480.589844 675.445312 503.167969 652.867188 531.015625 652.871094 L 538.324219 652.871094 C 566.171875 652.867188 588.746094 675.445312 588.742188 703.292969 L 589.066406 825.933594 L 624.636719 825.960938 L 624.285156 703.292969 C 624.285156 655.808594 585.800781 617.328125 538.324219 617.328125 L 531.035156 617.328125 Z M 842.957031 738.058594 L 681.074219 738.058594 C 681.074219 766.785156 704.328125 790.226562 733.058594 790.226562 L 939.394531 790.359375 C 947.5625 792.96875 956.5 790.53125 962.21875 784.140625 C 967.933594 777.75 969.359375 768.59375 965.859375 760.765625 C 962.359375 752.941406 954.582031 747.902344 946.007812 747.902344 L 894.710938 731.5 C 872.164062 724.085938 856.925781 703.027344 856.933594 679.292969 C 856.929688 648.957031 881.519531 624.367188 911.851562 624.371094 L 986.589844 624.265625 L 986.589844 659.773438 L 911.851562 659.921875 C 902.390625 659.933594 894.324219 666.78125 892.773438 676.117188 C 891.222656 685.449219 896.640625 694.539062 905.589844 697.609375 L 958.660156 714.59375 C 981.492188 722.738281 996.734375 744.363281 996.734375 768.601562 C 996.734375 800.265625 971.058594 825.941406 939.40625 825.941406 L 733.070312 826.070312 C 684.550781 826.070312 645.21875 786.746094 645.21875 738.21875 L 645.21875 708.65625 C 645.21875 658.195312 686.121094 617.296875 736.578125 617.296875 L 751.609375 617.296875 C 802.070312 617.296875 842.984375 658.195312 842.984375 708.65625 Z M 807.050781 707.027344 C 806.167969 677.042969 781.605469 653.199219 751.609375 653.195312 L 736.554688 653.195312 C 706.554688 653.195312 681.992188 677.042969 681.113281 707.027344 Z M 87.746094 1014.023438 C 85.949219 1014.960938 81.664062 1015.695312 77.320312 1015.695312 C 62.675781 1015.695312 55.152344 1005.304688 55.152344 991.628906 C 55.152344 977.964844 62.683594 967.5625 77.046875 967.5625 C 81.949219 967.5625 85.949219 968.839844 87.746094 969.515625 L 87.261719 977.226562 C 85.464844 976.351562 82.636719 974.664062 78.144531 974.664062 C 70.820312 974.664062 64.539062 979.503906 64.539062 991.621094 C 64.539062 1003.757812 70.820312 1008.582031 78.144531 1008.582031 C 82.421875 1008.582031 85.257812 1007.582031 87.261719 1006.175781 Z M 94.113281 968.238281 L 119.457031 968.238281 L 119.457031 975.074219 L 102.953125 975.074219 L 102.953125 987.550781 L 118.5625 987.550781 L 118.5625 994.378906 L 102.953125 994.378906 L 102.953125 1008.183594 L 120.152344 1008.183594 L 120.152344 1015.019531 L 94.113281 1015.019531 Z M 127.214844 968.238281 L 137.714844 968.238281 L 153.738281 1004.96875 L 153.875 1004.96875 L 153.875 968.238281 L 161.882812 968.238281 L 161.882812 1015.019531 L 151.316406 1015.019531 L 135.367188 978.554688 L 135.230469 978.554688 L 135.230469 1015.019531 L 127.214844 1015.019531 Z M 179.171875 975.074219 L 168.398438 975.074219 L 168.398438 968.238281 L 198.714844 968.238281 L 198.714844 975.074219 L 188.007812 975.074219 L 188.007812 1015.019531 L 179.171875 1015.019531 Z M 204.875 968.238281 L 219.933594 968.238281 C 228.5 968.238281 234.296875 972 234.296875 980.574219 C 234.296875 986.675781 230.363281 990.753906 224.972656 991.566406 L 224.972656 991.765625 C 226.769531 992.03125 228.773438 992.828125 230.292969 997.199219 L 236.582031 1015.019531 L 227.191406 1015.019531 L 222.425781 999.808594 C 221.25 996.125 218.96875 994.917969 215.726562 994.917969 L 213.722656 994.917969 L 213.722656 1015.019531 L 204.882812 1015.019531 L 204.882812 968.238281 Z M 217.308594 988.613281 C 222.011719 988.613281 225.179688 986.273438 225.179688 981.507812 C 225.179688 976.148438 222.277344 974.808594 217.308594 974.808594 L 213.714844 974.808594 L 213.714844 988.613281 Z M 242.328125 968.238281 L 267.675781 968.238281 L 267.675781 975.074219 L 251.164062 975.074219 L 251.164062 987.550781 L 266.773438 987.550781 L 266.773438 994.378906 L 251.164062 994.378906 L 251.164062 1008.183594 L 268.363281 1008.183594 L 268.363281 1015.019531 L 242.328125 1015.019531 Z M 294.765625 968.238281 L 305.257812 968.238281 L 321.28125 1004.96875 L 321.417969 1004.96875 L 321.417969 968.238281 L 329.433594 968.238281 L 329.433594 1015.019531 L 318.863281 1015.019531 L 302.910156 978.554688 L 302.765625 978.554688 L 302.765625 1015.019531 L 294.765625 1015.019531 Z M 362.394531 1003.761719 L 345.820312 1003.761719 L 342.363281 1015.019531 L 333.523438 1015.019531 L 349.683594 968.230469 L 359.351562 968.230469 L 374.890625 1015.019531 L 365.773438 1015.019531 Z M 360.527344 997.199219 L 354.449219 975.339844 L 354.316406 975.339844 L 347.6875 997.199219 Z M 382.023438 975.074219 L 371.246094 975.074219 L 371.246094 968.238281 L 401.5625 968.238281 L 401.5625 975.074219 L 390.855469 975.074219 L 390.855469 1015.019531 L 382.023438 1015.019531 Z M 408.210938 968.238281 L 417.050781 968.238281 L 417.050781 1015.019531 L 408.210938 1015.019531 Z M 444.605469 967.5625 C 454.617188 967.5625 463.804688 974.808594 463.804688 991.628906 C 463.804688 1008.464844 454.617188 1015.695312 444.605469 1015.695312 C 434.589844 1015.695312 425.410156 1008.464844 425.410156 991.628906 C 425.410156 974.808594 434.589844 967.5625 444.605469 967.5625 Z M 444.605469 1009.117188 C 450.199219 1009.117188 454.6875 1004.496094 454.6875 991.628906 C 454.6875 978.761719 450.199219 974.140625 444.605469 974.140625 C 439.011719 974.140625 434.519531 978.761719 434.519531 991.628906 C 434.519531 1004.496094 439.011719 1009.117188 444.605469 1009.117188 Z M 472.046875 968.238281 L 482.546875 968.238281 L 498.5625 1004.96875 L 498.707031 1004.96875 L 498.707031 968.238281 L 506.714844 968.238281 L 506.714844 1015.019531 L 496.144531 1015.019531 L 480.191406 978.554688 L 480.054688 978.554688 L 480.054688 1015.019531 L 472.046875 1015.019531 Z M 539.679688 1003.761719 L 523.101562 1003.761719 L 519.648438 1015.019531 L 510.8125 1015.019531 L 526.972656 968.230469 L 536.644531 968.230469 L 552.179688 1015.019531 L 543.0625 1015.019531 Z M 537.816406 997.199219 L 531.734375 975.339844 L 531.597656 975.339844 L 524.96875 997.199219 Z M 557.304688 968.238281 L 566.144531 968.238281 L 566.144531 1008.183594 L 582.023438 1008.183594 L 582.023438 1015.019531 L 557.304688 1015.019531 Z M 605.929688 968.238281 L 618.496094 968.238281 C 633.554688 968.238281 641.5625 976.15625 641.5625 991.628906 C 641.5625 1007.386719 631.898438 1015.019531 618.496094 1015.019531 L 605.929688 1015.019531 Z M 614.765625 1008.464844 L 617.738281 1008.464844 C 627.683594 1008.464844 632.179688 1001.886719 632.179688 991.628906 C 632.179688 981.382812 627.683594 974.808594 617.738281 974.808594 L 614.765625 974.808594 Z M 657.007812 968.238281 L 652.65625 982.003906 L 647.171875 982.003906 L 650.148438 968.238281 Z M 662.675781 968.238281 L 688.019531 968.238281 L 688.019531 975.074219 L 671.515625 975.074219 L 671.515625 987.550781 L 687.117188 987.550781 L 687.117188 994.378906 L 671.515625 994.378906 L 671.515625 1008.183594 L 688.699219 1008.183594 L 688.699219 1015.019531 L 662.675781 1015.019531 Z M 704.328125 975.074219 L 693.566406 975.074219 L 693.566406 968.238281 L 723.875 968.238281 L 723.875 975.074219 L 713.175781 975.074219 L 713.175781 1015.019531 L 704.328125 1015.019531 Z M 740.261719 968.238281 L 740.261719 998.535156 C 740.261719 1006.3125 742.679688 1008.859375 747.863281 1008.859375 C 752.902344 1008.859375 755.386719 1006.3125 755.386719 998.535156 L 755.386719 968.238281 L 764.222656 968.238281 L 764.222656 998.535156 C 764.222656 1010.871094 756.902344 1015.695312 747.863281 1015.695312 C 738.746094 1015.695312 731.421875 1010.871094 731.421875 998.535156 L 731.421875 968.238281 Z M 773.640625 968.238281 L 786.207031 968.238281 C 801.265625 968.238281 809.273438 976.15625 809.273438 991.628906 C 809.273438 1007.386719 799.613281 1015.019531 786.207031 1015.019531 L 773.640625 1015.019531 Z M 782.480469 1008.464844 L 785.441406 1008.464844 C 795.382812 1008.464844 799.882812 1001.886719 799.882812 991.628906 C 799.882812 981.382812 795.390625 974.808594 785.441406 974.808594 L 782.480469 974.808594 Z M 817.574219 968.238281 L 842.917969 968.238281 L 842.917969 975.074219 L 826.421875 975.074219 L 826.421875 987.550781 L 842.023438 987.550781 L 842.023438 994.378906 L 826.421875 994.378906 L 826.421875 1008.183594 L 843.617188 1008.183594 L 843.617188 1015.019531 L 817.574219 1015.019531 Z M 851.511719 1005.980469 C 853.234375 1007.042969 857.035156 1008.851562 861.730469 1008.851562 C 865.59375 1008.851562 869.050781 1006.777344 869.050781 1002.089844 C 869.050781 998.730469 867.046875 997.265625 862.769531 994.980469 L 858.273438 992.5625 C 853.515625 990.015625 850.40625 986.332031 850.40625 980.300781 C 850.40625 971.929688 857.515625 967.558594 865.59375 967.558594 C 870.710938 967.558594 874.296875 968.835938 875.679688 969.242188 L 875.277344 976.410156 C 873.136719 975.597656 870.296875 974.390625 866.226562 974.390625 C 861.800781 974.390625 859.527344 976.675781 859.527344 979.890625 C 859.527344 983.375 861.945312 984.714844 864.640625 986.203125 L 869.824219 989.015625 C 875.484375 992.097656 878.183594 995.046875 878.183594 1001.617188 C 878.183594 1011.128906 871.203125 1015.6875 862.023438 1015.6875 C 857.183594 1015.6875 853.460938 1015.015625 851.042969 1013.613281 Z M 904.003906 1005.980469 C 905.730469 1007.042969 909.53125 1008.851562 914.226562 1008.851562 C 918.089844 1008.851562 921.546875 1006.777344 921.546875 1002.089844 C 921.546875 998.730469 919.542969 997.265625 915.261719 994.980469 L 910.769531 992.5625 C 906.007812 990.015625 902.902344 986.332031 902.902344 980.300781 C 902.902344 971.929688 910.011719 967.558594 918.089844 967.558594 C 923.207031 967.558594 926.792969 968.835938 928.1875 969.242188 L 927.773438 976.410156 C 925.632812 975.597656 922.792969 974.390625 918.726562 974.390625 C 914.289062 974.390625 912.015625 976.675781 912.015625 979.890625 C 912.015625 983.375 914.433594 984.714844 917.132812 986.203125 L 922.3125 989.015625 C 927.972656 992.097656 930.671875 995.046875 930.671875 1001.617188 C 930.671875 1011.128906 923.695312 1015.6875 914.511719 1015.6875 C 909.671875 1015.6875 905.949219 1015.015625 903.53125 1013.613281 Z M 938.765625 968.238281 L 952.582031 968.238281 C 962.523438 968.238281 967.707031 973.609375 967.707031 982.445312 C 967.707031 991.296875 962.523438 996.71875 952.582031 996.71875 L 947.601562 996.71875 L 947.601562 1015.019531 L 938.765625 1015.019531 Z M 950.921875 990.164062 C 956.449219 990.164062 958.867188 987.558594 958.867188 982.453125 C 958.867188 977.363281 956.449219 974.8125 950.921875 974.8125 L 947.601562 974.8125 L 947.601562 990.164062 Z M 995.058594 1003.761719 L 978.476562 1003.761719 L 975.023438 1015.019531 L 966.183594 1015.019531 L 982.34375 968.230469 L 992.019531 968.230469 L 1007.554688 1015.019531 L 998.4375 1015.019531 Z M 993.1875 997.199219 L 987.117188 975.339844 L 986.980469 975.339844 L 980.34375 997.199219 Z M 1016.0625 975.074219 L 1005.285156 975.074219 L 1005.285156 968.238281 L 1035.601562 968.238281 L 1035.601562 975.074219 L 1024.902344 975.074219 L 1024.902344 1015.019531 L 1016.0625 1015.019531 Z M 1042.257812 968.238281 L 1051.09375 968.238281 L 1051.09375 1015.019531 L 1042.257812 1015.019531 Z M 1085.554688 1003.761719 L 1068.972656 1003.761719 L 1065.519531 1015.019531 L 1056.679688 1015.019531 L 1072.839844 968.230469 L 1082.515625 968.230469 L 1098.050781 1015.019531 L 1088.933594 1015.019531 Z M 1083.695312 997.199219 L 1077.613281 975.339844 L 1077.476562 975.339844 L 1070.84375 997.199219 Z M 1103.175781 968.238281 L 1112.019531 968.238281 L 1112.019531 1008.183594 L 1127.902344 1008.183594 L 1127.902344 1015.019531 L 1103.175781 1015.019531 Z M 1134.257812 968.238281 L 1159.613281 968.238281 L 1159.613281 975.074219 L 1143.097656 975.074219 L 1143.097656 987.550781 L 1158.71875 987.550781 L 1158.71875 994.378906 L 1143.097656 994.378906 L 1143.097656 1008.183594 L 1160.300781 1008.183594 L 1160.300781 1015.019531 L 1134.257812 1015.019531 Z M 1168.191406 1005.980469 C 1169.929688 1007.042969 1173.71875 1008.851562 1178.414062 1008.851562 C 1182.292969 1008.851562 1185.734375 1006.777344 1185.734375 1002.089844 C 1185.734375 998.730469 1183.730469 997.265625 1179.449219 994.980469 L 1174.96875 992.5625 C 1170.195312 990.015625 1167.089844 986.332031 1167.089844 980.300781 C 1167.089844 971.929688 1174.210938 967.558594 1182.292969 967.558594 C 1187.394531 967.558594 1190.992188 968.835938 1192.375 969.242188 L 1191.960938 976.410156 C 1189.820312 975.597656 1186.980469 974.390625 1182.914062 974.390625 C 1178.492188 974.390625 1176.214844 976.675781 1176.214844 979.890625 C 1176.214844 983.375 1178.632812 984.714844 1181.320312 986.203125 L 1186.5 989.015625 C 1192.160156 992.097656 1194.859375 995.046875 1194.859375 1001.617188 C 1194.859375 1011.128906 1187.882812 1015.6875 1178.699219 1015.6875 C 1173.859375 1015.6875 1170.140625 1015.015625 1167.71875 1013.613281 Z M 493.796875 396.503906 L 493.796875 510.4375 C 493.796875 510.4375 481.867188 486.585938 482.261719 453.527344 C 482.648438 420.460938 493.796875 396.503906 493.796875 396.503906 Z M 496.859375 389.820312 L 506.890625 372.542969 L 506.890625 533.835938 C 506.890625 533.835938 496.859375 519.074219 497.136719 517.402344 Z M 520.8125 551.390625 L 511.902344 541.085938 L 511.347656 366.144531 L 520.535156 355.6875 Z M 526.574219 350.171875 L 533.996094 343.113281 L 534.375 563.742188 L 526.574219 556.3125 Z M 541.058594 338.289062 L 548.113281 333.453125 L 548.671875 573.957031 L 541.058594 568.757812 Z M 555.539062 328.996094 C 555.539062 328.996094 560.371094 325.652344 561.855469 325.652344 L 562.414062 581.753906 L 555.539062 578.222656 Z M 570.398438 321.941406 L 575.597656 319.339844 L 576.15625 587.511719 L 570.398438 585.46875 Z M 595.664062 525.113281 C 595.664062 525.113281 590.832031 516.574219 589.347656 512.480469 L 589.347656 591.226562 L 585.261719 590.300781 L 585.261719 198.445312 C 585.261719 198.445312 585.863281 183.542969 590.742188 183.542969 C 595.617188 183.542969 596.03125 198.164062 596.03125 198.164062 Z M 599.929688 313.492188 L 603.851562 312.726562 C 603.851562 312.726562 605.265625 340.460938 609.171875 352.90625 L 608.980469 542.886719 L 603.832031 537.316406 L 603.417969 594.144531 L 599.519531 593.585938 Z M 622.074219 553.621094 L 617.0625 549.722656 L 616.917969 595.402344 L 613.160156 595.125 L 613.4375 546.519531 L 614.695312 547.773438 L 614.785156 372.640625 L 613.4375 368.367188 L 613.300781 311.820312 L 616.785156 311.402344 L 616.785156 377.425781 L 621.796875 388.289062 Z M 635.582031 561.421875 L 630.429688 558.777344 L 630.292969 595.546875 L 626.394531 595.683594 L 626.394531 556.261719 L 628.625 557.65625 L 628.902344 401.238281 L 626.394531 397.335938 L 626.394531 311.402344 C 626.394531 311.402344 627.089844 311.125 630.292969 311.402344 L 630.292969 403.46875 L 635.445312 411.128906 Z M 649.511719 566.019531 L 643.941406 564.347656 L 643.941406 594.292969 L 639.757812 594.710938 L 639.757812 562.953125 L 642.828125 564.066406 L 643.015625 421.117188 L 639.480469 417.21875 L 639.480469 312.097656 C 639.480469 312.097656 643.203125 312.097656 643.941406 312.46875 L 643.941406 422.414062 L 649.324219 428.171875 Z M 663.253906 568.199219 L 657.683594 567.828125 L 657.683594 591.597656 L 652.859375 592.710938 L 652.714844 566.714844 L 656.757812 567.273438 L 656.570312 434.855469 L 652.671875 431.699219 L 652.671875 314.140625 L 657.683594 315.066406 L 657.871094 435.414062 L 663.253906 438.941406 Z M 676.996094 568.570312 L 671.613281 568.75 L 671.613281 587.691406 L 665.847656 589.734375 L 665.847656 568.378906 L 670.609375 568.601562 L 670.6875 442.832031 L 665.847656 440.609375 L 665.847656 317.296875 C 665.847656 317.296875 669.941406 318.226562 671.613281 319.339844 L 671.984375 442.839844 L 676.808594 444.882812 Z M 691.664062 566.15625 L 685.167969 567.460938 L 685.167969 582.128906 L 679.226562 585.285156 L 679.226562 568.011719 L 685.167969 567.453125 L 685.167969 562.441406 L 684.992188 446.742188 C 684.992188 446.742188 679.785156 445.816406 679.226562 445.441406 C 678.667969 445.070312 679.226562 322.125 679.226562 322.125 L 685.167969 324.910156 L 684.992188 446.925781 C 684.992188 446.925781 689.992188 447.671875 691.664062 447.851562 Z M 692.273438 565.742188 L 699.101562 563.511719 L 699.101562 574.507812 L 692.273438 578.828125 Z M 706.347656 560.863281 L 713.175781 557.382812 L 713.175781 564.90625 L 704.953125 570.753906 L 705.089844 561.566406 L 699.519531 563.375 L 699.382812 448.046875 L 691.671875 447.859375 L 691.859375 328.257812 L 699.382812 332.71875 L 699.382812 447.210938 C 699.382812 447.210938 700.496094 447.769531 704.671875 446.652344 L 704.953125 336.058594 C 704.953125 336.058594 713.03125 341.351562 713.03125 342.464844 L 713.3125 444.699219 L 706.066406 446.652344 Z M 751.195312 517.960938 C 751.195312 517.960938 740.75 537.738281 730.4375 548.324219 L 730.574219 544.425781 L 727.371094 546.792969 L 727.507812 436.898438 L 730.574219 434.390625 L 730.574219 358.898438 C 730.574219 358.898438 740.046875 369.617188 741.164062 372.964844 L 741.164062 372.128906 C 741.164062 372.128906 751.195312 387.453125 751.195312 388.847656 Z M 727.234375 547.214844 L 727.371094 551.8125 L 717.894531 560.863281 L 717.894531 554.59375 L 713.726562 556.960938 L 713.863281 444.558594 L 717.890625 442.75 L 717.753906 346.363281 C 717.753906 346.363281 726.113281 353.609375 727.226562 355.28125 L 727.363281 437.320312 L 720.691406 441.496094 L 720.691406 552.089844 C 720.699219 552.082031 725.695312 548.464844 727.234375 547.214844 Z M 727.234375 547.214844 "/>
<path style=" stroke:none;fill-rule:evenodd;fill:rgb(14.509804%,32.54902%,59.607843%);fill-opacity:1;" d="M 741.300781 531.054688 C 741.300781 531.054688 738.511719 536.066406 736.007812 537.738281 L 736.007812 428.539062 C 736.007812 428.539062 739.210938 425.058594 741.164062 420.738281 Z M 741.441406 373.945312 L 741.441406 419.765625 C 741.441406 419.765625 746.988281 410.203125 746.929688 397.089844 C 746.875 383.96875 741.441406 373.945312 741.441406 373.945312 Z M 754.625 396.226562 L 754.625 510.996094 C 754.625 510.996094 766.695312 490.570312 766.695312 453.054688 C 766.699219 415.542969 754.625 396.226562 754.625 396.226562 Z M 754.625 396.226562 "/>
</g>
</svg>
