<?xml version="1.0" encoding="UTF-8"?>
<svg xmlns="http://www.w3.org/2000/svg" xmlns:xlink="http://www.w3.org/1999/xlink" width="px" height="0px" viewBox="0 0 54 20" version="1.1">
<g id="surface1">
<path style=" stroke:none;fill-rule:nonzero;fill:rgb(0%,19.607843%,27.843137%);fill-opacity:1;" d="M 12.777344 9.09375 L 16.742188 9.09375 C 16.742188 9.09375 16.902344 8.488281 16.195312 7.578125 C 14.796875 6.113281 13.230469 7.085938 13.230469 7.085938 C 12.460938 7.5 11.476562 9.222656 12.054688 11.691406 C 12.777344 14.160156 15.550781 14.667969 17.277344 14.09375 C 18.417969 13.714844 19.074219 12.878906 19.390625 12.355469 C 19.492188 11.929688 19.566406 11.507812 19.613281 11.085938 L 12.777344 11.085938 Z M 12.777344 9.09375 "/>
<path style=" stroke:none;fill-rule:nonzero;fill:rgb(0%,19.607843%,27.843137%);fill-opacity:1;" d="M 9.308594 0.015625 C 5.125 0.242188 1.390625 3.183594 0.304688 7.53125 C -1.03125 12.878906 2.152344 18.320312 7.417969 19.679688 C 11.15625 20.640625 14.949219 19.289062 17.304688 16.503906 C 16.269531 16.757812 15.058594 16.773438 13.742188 16.3125 C 9.335938 14.765625 8.527344 10.621094 9.625 7.722656 C 10.722656 4.824219 14.5625 3.472656 17.226562 5.414062 C 19.511719 7.078125 19.636719 10.046875 19.625 10.863281 C 20.042969 6.066406 17.003906 1.527344 12.257812 0.304688 C 11.273438 0.046875 10.277344 -0.0390625 9.308594 0.015625 Z M 4.515625 8.828125 C 5.214844 8.828125 5.777344 9.402344 5.777344 10.109375 C 5.777344 10.820312 5.214844 11.394531 4.515625 11.394531 C 3.816406 11.394531 3.238281 10.820312 3.238281 10.109375 C 3.238281 9.402344 3.816406 8.828125 4.515625 8.828125 Z M 4.515625 8.828125 "/>
<path style=" stroke:none;fill-rule:nonzero;fill:rgb(0%,19.607843%,27.843137%);fill-opacity:1;" d="M 49.019531 4.519531 C 48.238281 4.550781 47.4375 4.679688 46.78125 4.933594 C 45.40625 5.507812 44.714844 6.867188 44.714844 8.300781 L 47.207031 8.300781 C 47.144531 7.570312 47.683594 6.902344 48.183594 6.714844 C 48.40625 6.617188 48.707031 6.554688 49.019531 6.554688 C 49.644531 6.523438 50.285156 6.683594 50.722656 7.097656 C 51.007812 7.382812 51.085938 7.757812 50.992188 8.171875 C 50.835938 8.839844 50.117188 9.070312 49.019531 9.230469 C 48.644531 9.292969 48.210938 9.328125 47.742188 9.390625 C 46.429688 9.546875 44.554688 10.207031 44.117188 12.144531 C 43.960938 12.910156 44.078125 14.316406 45.234375 15.238281 C 46.019531 15.84375 47.121094 16.121094 47.964844 16.089844 C 48.339844 16.089844 48.722656 16.054688 49.035156 15.992188 C 49.910156 15.800781 50.589844 15.394531 51.246094 14.855469 C 51.277344 15.011719 51.433594 15.609375 51.558594 15.769531 L 54.195312 15.769531 C 53.789062 14.941406 53.847656 13.742188 53.847656 13.074219 L 53.847656 9.644531 C 53.816406 8.753906 53.8125 7.859375 53.625 7.035156 C 53.4375 6.207031 52.726562 4.835938 50.410156 4.550781 C 49.972656 4.519531 49.488281 4.519531 49.019531 4.519531 Z M 51.148438 10.238281 C 51.148438 10.492188 51.179688 12.308594 51.023438 12.660156 C 50.742188 13.421875 49.960938 13.863281 49.019531 13.957031 C 48.835938 13.988281 48.625 14.019531 48.40625 13.988281 C 47.78125 13.988281 47.253906 13.679688 47.035156 13.203125 C 46.785156 12.726562 46.941406 12.242188 47.097656 11.953125 C 47.472656 11.285156 48.128906 11.167969 49.035156 10.976562 C 49.316406 10.945312 49.625 10.878906 49.96875 10.785156 C 50.65625 10.625 50.804688 10.492188 51.148438 10.238281 Z M 51.148438 10.238281 "/>
<path style=" stroke:none;fill-rule:nonzero;fill:rgb(0%,19.607843%,27.843137%);fill-opacity:1;" d="M 30.71875 6.078125 C 29.625 4.835938 27.933594 4.296875 26.214844 4.550781 C 24.648438 4.804688 23.523438 5.695312 22.742188 6.96875 C 22.332031 7.699219 22.050781 8.527344 21.925781 9.320312 C 21.675781 11.261719 22.207031 14.503906 25.558594 15.777344 C 27.121094 16.378906 29.09375 16.15625 30.59375 15.042969 C 31.441406 14.410156 32.285156 12.976562 32.347656 12.085938 L 29.5625 12.085938 C 29.46875 12.46875 29.25 12.976562 28.75 13.359375 C 27.621094 14.1875 26.339844 13.644531 25.777344 13.230469 C 24.929688 12.59375 24.648438 11.546875 24.617188 10.050781 C 24.617188 9.257812 24.835938 7.984375 25.496094 7.382812 C 26.214844 6.777344 27.089844 6.617188 27.933594 6.871094 C 28.84375 7.160156 29.53125 8.175781 29.46875 9.097656 L 25.527344 9.097656 L 25.527344 11.101562 L 32.347656 11.101562 C 32.410156 10.371094 32.285156 9.671875 32.160156 9.003906 C 31.941406 8.019531 31.347656 6.808594 30.71875 6.078125 Z M 30.71875 6.078125 "/>
<path style=" stroke:none;fill-rule:nonzero;fill:rgb(0%,19.607843%,27.843137%);fill-opacity:1;" d="M 38.792969 9.035156 C 37.949219 8.875 36.980469 8.84375 36.480469 8.273438 C 36.257812 8.019531 36.257812 7.574219 36.382812 7.316406 C 36.730469 6.617188 37.574219 6.394531 38.386719 6.457031 C 39.105469 6.457031 39.765625 6.839844 40.046875 7.476562 C 40.171875 7.730469 40.203125 8.019531 40.234375 8.304688 L 42.546875 8.304688 C 42.582031 7.382812 42.203125 6.425781 41.640625 5.824219 C 40.921875 5.058594 39.230469 4.265625 37.136719 4.582031 C 36.007812 4.742188 34.507812 5.410156 34.003906 6.902344 C 33.566406 8.304688 34.003906 9.574219 34.851562 10.242188 C 35.914062 11.070312 37.917969 11.292969 38.730469 11.484375 C 39.671875 11.675781 40.140625 11.800781 40.296875 12.339844 C 40.390625 12.691406 40.359375 13.105469 40.140625 13.390625 C 39.542969 14.1875 38.324219 14.25 37.355469 13.960938 C 36.542969 13.710938 36.195312 13.042969 36.039062 12.148438 L 33.597656 12.148438 C 33.597656 12.976562 33.847656 13.550781 34.257812 14.21875 C 34.789062 15.078125 35.726562 15.777344 37.105469 16 C 38.605469 16.253906 40.140625 16.0625 41.046875 15.554688 C 41.578125 15.234375 41.984375 14.824219 42.332031 14.378906 C 42.832031 13.742188 43.269531 12.148438 42.488281 10.75 C 41.796875 9.542969 40.234375 9.289062 38.792969 9.035156 "/>
</g>
</svg>
