<?xml version="1.0" encoding="UTF-8"?>
<svg xmlns="http://www.w3.org/2000/svg" xmlns:xlink="http://www.w3.org/1999/xlink" width="px" height="0px" viewBox="0 0 55 46" version="1.1">
<g id="surface1">
<path style=" stroke:none;fill-rule:nonzero;fill:rgb(4.313725%,23.921569%,56.862745%);fill-opacity:1;" d="M 45.09375 22.5 C 45.09375 33.585938 36.109375 42.570312 25.023438 42.570312 C 13.941406 42.570312 4.953125 33.585938 4.953125 22.5 C 4.953125 11.414062 13.941406 2.429688 25.023438 2.429688 C 36.109375 2.429688 45.09375 11.414062 45.09375 22.5 Z M 45.09375 22.5 "/>
<path style=" stroke:none;fill-rule:nonzero;fill:rgb(100%,100%,100%);fill-opacity:1;" d="M 24.066406 6.285156 C 24.066406 6.410156 23.964844 6.511719 23.839844 6.511719 C 23.714844 6.511719 23.613281 6.410156 23.613281 6.285156 C 23.613281 6.160156 23.714844 6.058594 23.839844 6.058594 C 23.964844 6.058594 24.066406 6.160156 24.066406 6.285156 Z M 24.066406 6.285156 "/>
<path style=" stroke:none;fill-rule:nonzero;fill:rgb(100%,100%,100%);fill-opacity:1;" d="M 26.375 6.585938 C 26.375 6.710938 26.273438 6.808594 26.148438 6.808594 C 26.023438 6.808594 25.925781 6.710938 25.925781 6.585938 C 25.925781 6.460938 26.023438 6.359375 26.148438 6.359375 C 26.273438 6.359375 26.375 6.460938 26.375 6.585938 Z M 26.375 6.585938 "/>
<path style=" stroke:none;fill-rule:nonzero;fill:rgb(100%,100%,100%);fill-opacity:1;" d="M 29.40625 10.664062 C 29.40625 10.789062 29.304688 10.890625 29.179688 10.890625 C 29.054688 10.890625 28.953125 10.789062 28.953125 10.664062 C 28.953125 10.539062 29.054688 10.441406 29.179688 10.441406 C 29.304688 10.441406 29.40625 10.539062 29.40625 10.664062 Z M 29.40625 10.664062 "/>
<path style=" stroke:none;fill-rule:nonzero;fill:rgb(100%,100%,100%);fill-opacity:1;" d="M 12.785156 31.664062 C 12.785156 31.789062 12.683594 31.890625 12.558594 31.890625 C 12.433594 31.890625 12.335938 31.789062 12.335938 31.664062 C 12.335938 31.539062 12.433594 31.441406 12.558594 31.441406 C 12.683594 31.441406 12.785156 31.539062 12.785156 31.664062 Z M 12.785156 31.664062 "/>
<path style=" stroke:none;fill-rule:nonzero;fill:rgb(100%,100%,100%);fill-opacity:1;" d="M 13.371094 33.464844 C 13.371094 33.589844 13.269531 33.691406 13.144531 33.691406 C 13.019531 33.691406 12.917969 33.589844 12.917969 33.464844 C 12.917969 33.339844 13.019531 33.238281 13.144531 33.238281 C 13.269531 33.238281 13.371094 33.339844 13.371094 33.464844 Z M 13.371094 33.464844 "/>
<path style=" stroke:none;fill-rule:nonzero;fill:rgb(100%,100%,100%);fill-opacity:1;" d="M 10.523438 31.933594 C 10.523438 32.027344 10.449219 32.101562 10.355469 32.101562 C 10.261719 32.101562 10.1875 32.027344 10.1875 31.933594 C 10.1875 31.84375 10.261719 31.765625 10.355469 31.765625 C 10.449219 31.765625 10.523438 31.84375 10.523438 31.933594 Z M 10.523438 31.933594 "/>
<path style=" stroke:none;fill-rule:nonzero;fill:rgb(100%,100%,100%);fill-opacity:1;" d="M 19.671875 35.472656 C 19.671875 35.5625 19.597656 35.640625 19.503906 35.640625 C 19.410156 35.640625 19.335938 35.5625 19.335938 35.472656 C 19.335938 35.378906 19.410156 35.300781 19.503906 35.300781 C 19.597656 35.300781 19.671875 35.378906 19.671875 35.472656 Z M 19.671875 35.472656 "/>
<path style=" stroke:none;fill-rule:nonzero;fill:rgb(100%,100%,100%);fill-opacity:1;" d="M 34.023438 32.488281 C 34.023438 32.582031 33.949219 32.660156 33.855469 32.660156 C 33.761719 32.660156 33.6875 32.582031 33.6875 32.488281 C 33.6875 32.398438 33.761719 32.320312 33.855469 32.320312 C 33.949219 32.320312 34.023438 32.398438 34.023438 32.488281 Z M 34.023438 32.488281 "/>
<path style=" stroke:none;fill-rule:nonzero;fill:rgb(100%,100%,100%);fill-opacity:1;" d="M 38.195312 27.960938 C 38.195312 28.054688 38.121094 28.128906 38.027344 28.128906 C 37.933594 28.128906 37.855469 28.054688 37.855469 27.960938 C 37.855469 27.867188 37.933594 27.789062 38.027344 27.789062 C 38.121094 27.789062 38.195312 27.867188 38.195312 27.960938 Z M 38.195312 27.960938 "/>
<path style=" stroke:none;fill-rule:nonzero;fill:rgb(100%,100%,100%);fill-opacity:1;" d="M 17.753906 11.980469 C 17.753906 12.074219 17.675781 12.148438 17.585938 12.148438 C 17.492188 12.148438 17.414062 12.074219 17.414062 11.980469 C 17.414062 11.886719 17.492188 11.8125 17.585938 11.8125 C 17.675781 11.8125 17.753906 11.886719 17.753906 11.980469 Z M 17.753906 11.980469 "/>
<path style=" stroke:none;fill-rule:nonzero;fill:rgb(100%,100%,100%);fill-opacity:1;" d="M 22.34375 8.609375 C 22.34375 8.703125 22.265625 8.777344 22.175781 8.777344 C 22.082031 8.777344 22.007812 8.703125 22.007812 8.609375 C 22.007812 8.515625 22.082031 8.441406 22.175781 8.441406 C 22.265625 8.441406 22.34375 8.515625 22.34375 8.609375 Z M 22.34375 8.609375 "/>
<path style=" stroke:none;fill-rule:nonzero;fill:rgb(100%,100%,100%);fill-opacity:1;" d="M 21.84375 8.28125 C 21.84375 8.375 21.769531 8.449219 21.675781 8.449219 C 21.582031 8.449219 21.507812 8.375 21.507812 8.28125 C 21.507812 8.1875 21.582031 8.113281 21.675781 8.113281 C 21.769531 8.113281 21.84375 8.1875 21.84375 8.28125 Z M 21.84375 8.28125 "/>
<path style=" stroke:none;fill-rule:nonzero;fill:rgb(100%,100%,100%);fill-opacity:1;" d="M 21.394531 7.949219 C 21.394531 8.042969 21.320312 8.117188 21.226562 8.117188 C 21.132812 8.117188 21.058594 8.042969 21.058594 7.949219 C 21.058594 7.855469 21.132812 7.78125 21.226562 7.78125 C 21.320312 7.78125 21.394531 7.855469 21.394531 7.949219 Z M 21.394531 7.949219 "/>
<path style=" stroke:none;fill-rule:nonzero;fill:rgb(100%,100%,100%);fill-opacity:1;" d="M 18.472656 12.851562 C 18.472656 12.945312 18.398438 13.019531 18.304688 13.019531 C 18.210938 13.019531 18.136719 12.945312 18.136719 12.851562 C 18.136719 12.757812 18.210938 12.683594 18.304688 12.683594 C 18.398438 12.683594 18.472656 12.757812 18.472656 12.851562 Z M 18.472656 12.851562 "/>
<path style=" stroke:none;fill-rule:nonzero;fill:rgb(100%,100%,100%);fill-opacity:1;" d="M 25.234375 4.078125 C 25.234375 4.171875 25.160156 4.25 25.066406 4.25 C 24.972656 4.25 24.898438 4.171875 24.898438 4.078125 C 24.898438 3.988281 24.972656 3.910156 25.066406 3.910156 C 25.160156 3.910156 25.234375 3.988281 25.234375 4.078125 Z M 25.234375 4.078125 "/>
<path style=" stroke:none;fill-rule:nonzero;fill:rgb(100%,100%,100%);fill-opacity:1;" d="M 26.34375 8.941406 C 26.34375 9.03125 26.269531 9.109375 26.175781 9.109375 C 26.082031 9.109375 26.007812 9.03125 26.007812 8.941406 C 26.007812 8.847656 26.082031 8.773438 26.175781 8.773438 C 26.269531 8.773438 26.34375 8.847656 26.34375 8.941406 Z M 26.34375 8.941406 "/>
<path style=" stroke:none;fill-rule:nonzero;fill:rgb(100%,100%,100%);fill-opacity:1;" d="M 24.59375 7.992188 C 24.59375 8.085938 24.515625 8.160156 24.425781 8.160156 C 24.332031 8.160156 24.257812 8.085938 24.257812 7.992188 C 24.257812 7.898438 24.332031 7.824219 24.425781 7.824219 C 24.515625 7.824219 24.59375 7.898438 24.59375 7.992188 Z M 24.59375 7.992188 "/>
<path style=" stroke:none;fill-rule:nonzero;fill:rgb(100%,100%,100%);fill-opacity:1;" d="M 21.59375 9.28125 C 21.59375 9.375 21.515625 9.449219 21.425781 9.449219 C 21.332031 9.449219 21.257812 9.375 21.257812 9.28125 C 21.257812 9.1875 21.332031 9.113281 21.425781 9.113281 C 21.515625 9.113281 21.59375 9.1875 21.59375 9.28125 Z M 21.59375 9.28125 "/>
<path style=" stroke:none;fill-rule:nonzero;fill:rgb(100%,100%,100%);fill-opacity:1;" d="M 34.824219 36.941406 C 34.824219 37.035156 34.746094 37.109375 34.65625 37.109375 C 34.5625 37.109375 34.484375 37.035156 34.484375 36.941406 C 34.484375 36.847656 34.5625 36.773438 34.65625 36.773438 C 34.746094 36.773438 34.824219 36.847656 34.824219 36.941406 Z M 34.824219 36.941406 "/>
<path style=" stroke:none;fill-rule:nonzero;fill:rgb(100%,100%,100%);fill-opacity:1;" d="M 12.445312 32.804688 C 12.445312 32.898438 12.367188 32.972656 12.273438 32.972656 C 12.179688 32.972656 12.105469 32.898438 12.105469 32.804688 C 12.105469 32.710938 12.179688 32.636719 12.273438 32.636719 C 12.367188 32.636719 12.445312 32.710938 12.445312 32.804688 Z M 12.445312 32.804688 "/>
<path style=" stroke:none;fill-rule:nonzero;fill:rgb(100%,100%,100%);fill-opacity:1;" d="M 24.171875 34.980469 C 24.171875 35.074219 24.097656 35.148438 24.003906 35.148438 C 23.910156 35.148438 23.835938 35.074219 23.835938 34.980469 C 23.835938 34.886719 23.910156 34.8125 24.003906 34.8125 C 24.097656 34.8125 24.171875 34.886719 24.171875 34.980469 Z M 24.171875 34.980469 "/>
<path style=" stroke:none;fill-rule:nonzero;fill:rgb(100%,100%,100%);fill-opacity:1;" d="M 15.933594 32.671875 C 15.933594 32.761719 15.859375 32.839844 15.765625 32.839844 C 15.671875 32.839844 15.597656 32.761719 15.597656 32.671875 C 15.597656 32.578125 15.671875 32.5 15.765625 32.5 C 15.859375 32.5 15.933594 32.578125 15.933594 32.671875 Z M 15.933594 32.671875 "/>
<path style=" stroke:none;fill-rule:nonzero;fill:rgb(100%,100%,100%);fill-opacity:1;" d="M 17.394531 35.050781 C 17.394531 35.144531 17.316406 35.21875 17.222656 35.21875 C 17.132812 35.21875 17.054688 35.144531 17.054688 35.050781 C 17.054688 34.957031 17.132812 34.882812 17.222656 34.882812 C 17.316406 34.882812 17.394531 34.957031 17.394531 35.050781 Z M 17.394531 35.050781 "/>
<path style=" stroke:none;fill-rule:nonzero;fill:rgb(100%,100%,100%);fill-opacity:1;" d="M 28.132812 33.550781 C 28.132812 33.644531 28.058594 33.71875 27.964844 33.71875 C 27.871094 33.71875 27.796875 33.644531 27.796875 33.550781 C 27.796875 33.457031 27.871094 33.382812 27.964844 33.382812 C 28.058594 33.382812 28.132812 33.457031 28.132812 33.550781 Z M 28.132812 33.550781 "/>
<path style=" stroke:none;fill-rule:nonzero;fill:rgb(100%,100%,100%);fill-opacity:1;" d="M 34.054688 30.210938 C 34.054688 30.304688 33.980469 30.378906 33.886719 30.378906 C 33.792969 30.378906 33.71875 30.304688 33.71875 30.210938 C 33.71875 30.117188 33.792969 30.042969 33.886719 30.042969 C 33.980469 30.042969 34.054688 30.117188 34.054688 30.210938 Z M 34.054688 30.210938 "/>
<path style=" stroke:none;fill-rule:nonzero;fill:rgb(100%,100%,100%);fill-opacity:1;" d="M 38.542969 32.261719 C 38.542969 32.355469 38.46875 32.429688 38.375 32.429688 C 38.28125 32.429688 38.207031 32.355469 38.207031 32.261719 C 38.207031 32.167969 38.28125 32.09375 38.375 32.09375 C 38.46875 32.09375 38.542969 32.167969 38.542969 32.261719 Z M 38.542969 32.261719 "/>
<path style=" stroke:none;fill-rule:nonzero;fill:rgb(100%,100%,100%);fill-opacity:1;" d="M 40.074219 33.238281 C 40.074219 33.332031 39.996094 33.410156 39.90625 33.410156 C 39.8125 33.410156 39.734375 33.332031 39.734375 33.238281 C 39.734375 33.148438 39.8125 33.070312 39.90625 33.070312 C 39.996094 33.070312 40.074219 33.148438 40.074219 33.238281 Z M 40.074219 33.238281 "/>
<path style=" stroke:none;fill-rule:nonzero;fill:rgb(100%,100%,100%);fill-opacity:1;" d="M 40.324219 30.570312 C 40.324219 30.664062 40.25 30.738281 40.15625 30.738281 C 40.0625 30.738281 39.988281 30.664062 39.988281 30.570312 C 39.988281 30.476562 40.0625 30.402344 40.15625 30.402344 C 40.25 30.402344 40.324219 30.476562 40.324219 30.570312 Z M 40.324219 30.570312 "/>
<path style=" stroke:none;fill-rule:nonzero;fill:rgb(100%,100%,100%);fill-opacity:1;" d="M 18.003906 26.789062 C 18.003906 26.882812 17.929688 26.957031 17.835938 26.957031 C 17.742188 26.957031 17.667969 26.882812 17.667969 26.789062 C 17.667969 26.695312 17.742188 26.621094 17.835938 26.621094 C 17.929688 26.621094 18.003906 26.695312 18.003906 26.789062 Z M 18.003906 26.789062 "/>
<path style=" stroke:none;fill-rule:nonzero;fill:rgb(100%,100%,100%);fill-opacity:1;" d="M 18.125 30.660156 C 18.125 30.785156 18.023438 30.886719 17.898438 30.886719 C 17.773438 30.886719 17.675781 30.785156 17.675781 30.660156 C 17.675781 30.535156 17.773438 30.433594 17.898438 30.433594 C 18.023438 30.433594 18.125 30.535156 18.125 30.660156 Z M 18.125 30.660156 "/>
<path style=" stroke:none;fill-rule:nonzero;fill:rgb(100%,100%,100%);fill-opacity:1;" d="M 19.472656 33.511719 C 19.472656 33.632812 19.375 33.734375 19.25 33.734375 C 19.125 33.734375 19.023438 33.632812 19.023438 33.511719 C 19.023438 33.386719 19.125 33.285156 19.25 33.285156 C 19.375 33.285156 19.472656 33.386719 19.472656 33.511719 Z M 19.472656 33.511719 "/>
<path style=" stroke:none;fill-rule:nonzero;fill:rgb(100%,100%,100%);fill-opacity:1;" d="M 35.644531 30.539062 C 35.644531 30.664062 35.542969 30.765625 35.417969 30.765625 C 35.296875 30.765625 35.195312 30.664062 35.195312 30.539062 C 35.195312 30.414062 35.296875 30.316406 35.417969 30.316406 C 35.542969 30.316406 35.644531 30.414062 35.644531 30.539062 Z M 35.644531 30.539062 "/>
<path style=" stroke:none;fill-rule:nonzero;fill:rgb(100%,100%,100%);fill-opacity:1;" d="M 41.464844 30.210938 C 41.464844 30.335938 41.363281 30.433594 41.238281 30.433594 C 41.117188 30.433594 41.015625 30.335938 41.015625 30.210938 C 41.015625 30.085938 41.117188 29.984375 41.238281 29.984375 C 41.363281 29.984375 41.464844 30.085938 41.464844 30.210938 Z M 41.464844 30.210938 "/>
<path style=" stroke:none;fill-rule:nonzero;fill:rgb(100%,100%,100%);fill-opacity:1;" d="M 38.585938 28.980469 C 38.585938 29.105469 38.484375 29.203125 38.359375 29.203125 C 38.234375 29.203125 38.132812 29.105469 38.132812 28.980469 C 38.132812 28.855469 38.234375 28.753906 38.359375 28.753906 C 38.484375 28.753906 38.585938 28.855469 38.585938 28.980469 Z M 38.585938 28.980469 "/>
<path style=" stroke:none;fill-rule:nonzero;fill:rgb(100%,100%,100%);fill-opacity:1;" d="M 35.644531 29.101562 C 35.644531 29.222656 35.542969 29.324219 35.417969 29.324219 C 35.296875 29.324219 35.195312 29.222656 35.195312 29.101562 C 35.195312 28.976562 35.296875 28.875 35.417969 28.875 C 35.542969 28.875 35.644531 28.976562 35.644531 29.101562 Z M 35.644531 29.101562 "/>
<path style=" stroke:none;fill-rule:nonzero;fill:rgb(100%,100%,100%);fill-opacity:1;" d="M 29.355469 6.144531 L 29.914062 6.089844 L 29.355469 6.058594 C 29.339844 5.949219 29.253906 5.867188 29.144531 5.851562 L 29.089844 5.296875 L 29.058594 5.855469 C 28.957031 5.878906 28.878906 5.964844 28.867188 6.070312 L 28.292969 6.121094 L 28.871094 6.152344 C 28.890625 6.25 28.96875 6.324219 29.066406 6.34375 L 29.121094 6.914062 L 29.148438 6.34375 C 29.253906 6.324219 29.335938 6.246094 29.355469 6.144531 Z M 29.355469 6.144531 "/>
<path style=" stroke:none;fill-rule:nonzero;fill:rgb(100%,100%,100%);fill-opacity:1;" d="M 19.910156 12.371094 L 20.472656 12.320312 L 19.914062 12.289062 C 19.894531 12.179688 19.808594 12.09375 19.699219 12.082031 L 19.648438 11.523438 L 19.613281 12.085938 C 19.511719 12.109375 19.4375 12.191406 19.421875 12.296875 L 18.851562 12.351562 L 19.425781 12.382812 C 19.449219 12.476562 19.527344 12.554688 19.625 12.570312 L 19.675781 13.144531 L 19.707031 12.570312 C 19.8125 12.554688 19.894531 12.476562 19.910156 12.371094 Z M 19.910156 12.371094 "/>
<path style=" stroke:none;fill-rule:nonzero;fill:rgb(100%,100%,100%);fill-opacity:1;" d="M 40.828125 28.84375 L 41.390625 28.789062 L 40.832031 28.757812 C 40.8125 28.648438 40.726562 28.566406 40.617188 28.550781 L 40.5625 27.992188 L 40.53125 28.554688 C 40.429688 28.578125 40.355469 28.660156 40.339844 28.765625 L 39.769531 28.820312 L 40.34375 28.851562 C 40.367188 28.945312 40.445312 29.023438 40.542969 29.039062 L 40.59375 29.613281 L 40.625 29.039062 C 40.726562 29.023438 40.808594 28.945312 40.828125 28.84375 Z M 40.828125 28.84375 "/>
<path style=" stroke:none;fill-rule:nonzero;fill:rgb(100%,100%,100%);fill-opacity:1;" d="M 18.023438 37.453125 L 18.582031 37.398438 L 18.023438 37.367188 C 18.003906 37.261719 17.917969 37.175781 17.808594 37.160156 L 17.757812 36.605469 L 17.726562 37.164062 C 17.625 37.1875 17.546875 37.273438 17.535156 37.378906 L 16.960938 37.429688 L 17.539062 37.460938 C 17.558594 37.558594 17.636719 37.632812 17.734375 37.652344 L 17.785156 38.226562 L 17.816406 37.652344 C 17.921875 37.636719 18.003906 37.554688 18.023438 37.453125 Z M 18.023438 37.453125 "/>
<path style=" stroke:none;fill-rule:nonzero;fill:rgb(100%,100%,100%);fill-opacity:1;" d="M 39.050781 33.253906 L 39.613281 33.199219 L 39.054688 33.167969 C 39.035156 33.058594 38.949219 32.976562 38.839844 32.960938 L 38.785156 32.40625 L 38.753906 32.964844 C 38.652344 32.988281 38.578125 33.074219 38.5625 33.175781 L 37.992188 33.230469 L 38.566406 33.261719 C 38.589844 33.355469 38.667969 33.433594 38.765625 33.449219 L 38.816406 34.023438 L 38.847656 33.453125 C 38.949219 33.433594 39.03125 33.355469 39.050781 33.253906 Z M 39.050781 33.253906 "/>
<path style=" stroke:none;fill-rule:nonzero;fill:rgb(98.823529%,23.921569%,12.941176%);fill-opacity:1;" d="M 29.785156 17.691406 C 27.449219 18.597656 25.175781 19.410156 23.253906 20.011719 C 19.351562 21.230469 8.675781 24.539062 2.222656 28.710938 L 2.765625 28.921875 C 6.695312 26.699219 9.25 26.003906 11.703125 25.230469 C 14.375 24.390625 23.003906 22.371094 26.914062 21.269531 C 28.234375 20.898438 29.78125 20.410156 31.417969 19.820312 C 31.039062 19.289062 30.636719 18.753906 30.214844 18.222656 C 30.070312 18.042969 29.929688 17.867188 29.785156 17.691406 Z M 32.636719 21.621094 C 32.070312 22.003906 31.597656 22.308594 31.265625 22.5 C 29.34375 23.609375 19.984375 30 17.855469 31.46875 C 15.726562 32.941406 9.816406 38.519531 8.074219 40.140625 L 8.015625 40.800781 C 13.625 35.757812 15.386719 34.515625 17.613281 32.820312 C 20.375 30.71875 26.085938 26.835938 28.023438 25.589844 C 29.878906 24.398438 31.554688 23.304688 33.054688 22.304688 C 33.03125 22.261719 33.003906 22.222656 32.980469 22.179688 C 32.867188 21.996094 32.753906 21.808594 32.636719 21.621094 Z M 41.40625 12.359375 C 38.671875 13.960938 34.363281 15.894531 30.183594 17.535156 C 30.285156 17.660156 30.382812 17.78125 30.484375 17.90625 C 30.949219 18.496094 31.390625 19.085938 31.804688 19.679688 C 35.089844 18.46875 38.695312 16.84375 41.554688 14.878906 C 40.191406 16.171875 35.6875 19.535156 32.941406 21.414062 C 33.082031 21.644531 33.21875 21.875 33.351562 22.105469 C 37.511719 19.320312 40.3125 17.269531 41.945312 15.898438 C 44.195312 14.007812 49.324219 9.78125 51.273438 4.109375 C 47.855469 8.460938 43.808594 10.949219 41.40625 12.359375 Z M 41.40625 12.359375 "/>
<path style=" stroke:none;fill-rule:nonzero;fill:rgb(100%,100%,100%);fill-opacity:1;" d="M 22.441406 27.46875 C 22 26.914062 21.386719 26.167969 20.929688 25.589844 C 20.3125 24.816406 19.746094 24.03125 19.222656 23.253906 C 19.054688 23.296875 18.882812 23.335938 18.714844 23.378906 C 19.34375 24.363281 20.042969 25.339844 20.804688 26.300781 C 21.359375 27 21.863281 27.5625 22.125 27.914062 C 22.175781 27.984375 22.28125 28.140625 22.421875 28.351562 C 22.582031 28.242188 22.746094 28.128906 22.910156 28.015625 C 22.753906 27.84375 22.59375 27.660156 22.441406 27.46875 Z M 25.671875 30.402344 C 25.308594 30.058594 24.425781 29.484375 23.507812 28.621094 C 23.308594 28.761719 23.101562 28.902344 22.898438 29.042969 C 23.488281 29.878906 24.296875 30.902344 24.929688 31.203125 C 25.882812 31.652344 26.136719 30.84375 25.671875 30.402344 Z M 30.484375 17.90625 C 25.238281 11.304688 18.828125 7.675781 16.066406 9.871094 C 13.921875 11.578125 14.800781 16.558594 17.757812 21.792969 C 17.910156 21.742188 18.0625 21.691406 18.214844 21.640625 C 15.226562 16.539062 14.410156 11.800781 16.433594 10.191406 C 18.976562 8.171875 25.121094 11.8125 30.214844 18.222656 C 31.269531 19.550781 32.195312 20.882812 32.980469 22.179688 C 35.988281 27.15625 36.910156 31.65625 34.832031 33.492188 C 34.195312 34.054688 32.253906 34.273438 29.710938 33.128906 C 29.675781 33.171875 29.730469 33.292969 29.777344 33.324219 C 31.972656 34.207031 34.074219 34.542969 35.136719 33.699219 C 37.691406 31.671875 35.730469 24.507812 30.484375 17.90625 Z M 30.484375 17.90625 "/>
<path style=" stroke:none;fill-rule:nonzero;fill:rgb(100%,100%,100%);fill-opacity:1;" d="M 7.984375 18.691406 L 11.34375 18.691406 L 14.164062 23.476562 C 14.164062 23.476562 14.164062 20.011719 14.164062 19.738281 C 14.164062 19.320312 13.632812 18.773438 13.445312 18.691406 C 13.667969 18.691406 15.632812 18.691406 15.769531 18.691406 C 15.628906 18.726562 15.167969 19.28125 15.167969 19.738281 C 15.167969 19.964844 15.167969 24.988281 15.167969 25.230469 C 15.167969 25.566406 15.65625 26.03125 15.890625 26.210938 L 12.648438 26.210938 L 9.785156 21.40625 C 9.785156 21.40625 9.785156 24.988281 9.785156 25.183594 C 9.785156 25.558594 10.152344 25.921875 10.535156 26.226562 L 8.058594 26.226562 C 8.410156 26.078125 8.75 25.605469 8.78125 25.230469 C 8.808594 24.855469 8.78125 20.015625 8.78125 19.808594 C 8.78125 19.351562 8.335938 18.976562 7.984375 18.691406 Z M 7.984375 18.691406 "/>
<path style=" stroke:none;fill-rule:nonzero;fill:rgb(100%,100%,100%);fill-opacity:1;" d="M 38.71875 26.210938 L 43.191406 26.210938 C 42.941406 26.152344 42.664062 25.859375 42.515625 25.46875 C 42.363281 25.078125 39.996094 18.691406 39.996094 18.691406 L 38.296875 18.691406 C 37.8125 19.035156 37.296875 19.402344 36.746094 19.789062 C 36.742188 19.800781 36.742188 19.816406 36.738281 19.828125 C 36.664062 20.28125 35.335938 25.097656 35.253906 25.335938 C 35.140625 25.664062 34.566406 26.03125 34.332031 26.226562 L 36.738281 26.226562 C 36.5 25.957031 36.304688 25.695312 36.347656 25.394531 C 36.394531 25.09375 36.53125 24.496094 36.53125 24.496094 L 39.019531 24.496094 C 39.132812 24.796875 39.214844 25.066406 39.257812 25.320312 C 39.3125 25.628906 38.996094 25.972656 38.71875 26.210938 Z M 36.753906 23.535156 L 37.59375 20.789062 L 38.703125 23.535156 Z M 36.375 18.964844 C 36.5 18.871094 36.625 18.78125 36.746094 18.691406 L 36.09375 18.691406 C 36.160156 18.75 36.265625 18.84375 36.375 18.964844 Z M 36.375 18.964844 "/>
<path style=" stroke:none;fill-rule:nonzero;fill:rgb(100%,100%,100%);fill-opacity:1;" d="M 19.28125 25.394531 C 19.324219 25.09375 19.460938 24.496094 19.460938 24.496094 L 21.949219 24.496094 C 22.0625 24.796875 22.144531 25.066406 22.191406 25.320312 C 22.242188 25.628906 21.925781 25.972656 21.648438 26.210938 L 25.585938 26.210938 C 25.667969 26.15625 25.75 26.101562 25.828125 26.046875 C 25.675781 25.914062 25.535156 25.710938 25.445312 25.46875 C 25.292969 25.078125 22.925781 18.691406 22.925781 18.691406 L 19.023438 18.691406 C 19.210938 18.863281 19.753906 19.328125 19.667969 19.828125 C 19.597656 20.28125 18.265625 25.097656 18.183594 25.335938 C 18.070312 25.664062 17.496094 26.03125 17.261719 26.226562 L 19.667969 26.226562 C 19.429688 25.957031 19.234375 25.695312 19.28125 25.394531 Z M 20.523438 20.789062 L 21.632812 23.535156 L 19.683594 23.535156 Z M 20.523438 20.789062 "/>
<path style=" stroke:none;fill-rule:nonzero;fill:rgb(100%,100%,100%);fill-opacity:1;" d="M 32.875 22.425781 C 32.140625 22.914062 31.367188 23.421875 30.550781 23.957031 C 30.914062 24.132812 31.207031 24.355469 31.234375 24.644531 C 31.285156 25.1875 30.199219 25.449219 29.21875 25.335938 C 29.019531 25.3125 28.828125 25.261719 28.644531 25.191406 C 28.441406 25.324219 28.234375 25.457031 28.023438 25.589844 C 27.8125 25.726562 27.554688 25.894531 27.261719 26.089844 L 27.261719 26.863281 C 27.453125 26.484375 27.882812 26.140625 28.210938 26.121094 C 28.355469 26.113281 28.851562 26.574219 30.890625 26.460938 C 31.878906 26.40625 33.792969 25.351562 33.761719 24.136719 C 33.746094 23.417969 33.371094 22.855469 32.875 22.425781 Z M 27.257812 24.300781 L 27.257812 25.089844 C 27.441406 24.96875 27.617188 24.851562 27.792969 24.738281 C 27.519531 24.546875 27.324219 24.367188 27.257812 24.300781 Z M 32.175781 21.925781 C 31.988281 21.816406 31.792969 21.714844 31.609375 21.628906 C 30.648438 21.179688 29.644531 21.097656 29.433594 20.488281 C 29.285156 20.0625 29.703125 19.664062 30.722656 19.679688 C 31.746094 19.695312 32.691406 20.300781 32.945312 20.519531 L 32.945312 18.585938 C 32.871094 18.660156 32.539062 19.035156 32.238281 18.972656 C 31.660156 18.855469 30.679688 18.699219 29.554688 18.703125 C 28.265625 18.710938 27.15625 19.710938 27.117188 20.96875 C 27.066406 22.730469 28.472656 23.210938 29.269531 23.488281 C 29.351562 23.519531 29.445312 23.546875 29.546875 23.582031 C 30.308594 23.085938 30.910156 22.703125 31.265625 22.5 C 31.503906 22.363281 31.8125 22.167969 32.175781 21.925781 Z M 32.175781 21.925781 "/>
</g>
</svg>
